<?xml version="1.0" encoding="UTF-8"?>
<!--
  ProSwing Golf App - Icon Library
  Import denne filen til Figma: File > Import (Ctrl/Cmd + Shift + K)
  Alle ikoner er 24x24px med 1.5px stroke
-->
<svg xmlns="http://www.w3.org/2000/svg" width="800" height="600">

  <!-- ================================
       ROW 1: NAVIGATION ICONS
       ================================ -->

  <!-- Home -->
  <g id="icon-home" transform="translate(20, 20)">
    <rect width="24" height="24" fill="none"/>
    <path d="M3 9l9-7 9 7v11a2 2 0 0 1-2 2H5a2 2 0 0 1-2-2z" fill="none" stroke="#ffffff" stroke-width="1.5" stroke-linecap="round" stroke-linejoin="round"/>
    <polyline points="9,22 9,12 15,12 15,22" fill="none" stroke="#ffffff" stroke-width="1.5" stroke-linecap="round" stroke-linejoin="round"/>
  </g>

  <!-- Stats/Chart -->
  <g id="icon-stats" transform="translate(60, 20)">
    <rect width="24" height="24" fill="none"/>
    <line x1="18" y1="20" x2="18" y2="10" stroke="#ffffff" stroke-width="1.5" stroke-linecap="round"/>
    <line x1="12" y1="20" x2="12" y2="4" stroke="#ffffff" stroke-width="1.5" stroke-linecap="round"/>
    <line x1="6" y1="20" x2="6" y2="14" stroke="#ffffff" stroke-width="1.5" stroke-linecap="round"/>
  </g>

  <!-- Video/Camera -->
  <g id="icon-video" transform="translate(100, 20)">
    <rect width="24" height="24" fill="none"/>
    <polygon points="23,7 16,12 23,17" fill="none" stroke="#ffffff" stroke-width="1.5" stroke-linecap="round" stroke-linejoin="round"/>
    <rect x="1" y="5" width="15" height="14" rx="2" ry="2" fill="none" stroke="#ffffff" stroke-width="1.5"/>
  </g>

  <!-- Book/Lessons -->
  <g id="icon-lessons" transform="translate(140, 20)">
    <rect width="24" height="24" fill="none"/>
    <path d="M4 19.5A2.5 2.5 0 0 1 6.5 17H20" fill="none" stroke="#ffffff" stroke-width="1.5" stroke-linecap="round" stroke-linejoin="round"/>
    <path d="M6.5 2H20v20H6.5A2.5 2.5 0 0 1 4 19.5v-15A2.5 2.5 0 0 1 6.5 2z" fill="none" stroke="#ffffff" stroke-width="1.5" stroke-linecap="round" stroke-linejoin="round"/>
  </g>

  <!-- User/Profile -->
  <g id="icon-profile" transform="translate(180, 20)">
    <rect width="24" height="24" fill="none"/>
    <path d="M20 21v-2a4 4 0 0 0-4-4H8a4 4 0 0 0-4 4v2" fill="none" stroke="#ffffff" stroke-width="1.5" stroke-linecap="round" stroke-linejoin="round"/>
    <circle cx="12" cy="7" r="4" fill="none" stroke="#ffffff" stroke-width="1.5"/>
  </g>

  <!-- Settings -->
  <g id="icon-settings" transform="translate(220, 20)">
    <rect width="24" height="24" fill="none"/>
    <circle cx="12" cy="12" r="3" fill="none" stroke="#ffffff" stroke-width="1.5"/>
    <path d="M19.4 15a1.65 1.65 0 0 0 .33 1.82l.06.06a2 2 0 0 1 0 2.83 2 2 0 0 1-2.83 0l-.06-.06a1.65 1.65 0 0 0-1.82-.33 1.65 1.65 0 0 0-1 1.51V21a2 2 0 0 1-2 2 2 2 0 0 1-2-2v-.09A1.65 1.65 0 0 0 9 19.4a1.65 1.65 0 0 0-1.82.33l-.06.06a2 2 0 0 1-2.83 0 2 2 0 0 1 0-2.83l.06-.06a1.65 1.65 0 0 0 .33-1.82 1.65 1.65 0 0 0-1.51-1H3a2 2 0 0 1-2-2 2 2 0 0 1 2-2h.09A1.65 1.65 0 0 0 4.6 9a1.65 1.65 0 0 0-.33-1.82l-.06-.06a2 2 0 0 1 0-2.83 2 2 0 0 1 2.83 0l.06.06a1.65 1.65 0 0 0 1.82.33H9a1.65 1.65 0 0 0 1-1.51V3a2 2 0 0 1 2-2 2 2 0 0 1 2 2v.09a1.65 1.65 0 0 0 1 1.51 1.65 1.65 0 0 0 1.82-.33l.06-.06a2 2 0 0 1 2.83 0 2 2 0 0 1 0 2.83l-.06.06a1.65 1.65 0 0 0-.33 1.82V9a1.65 1.65 0 0 0 1.51 1H21a2 2 0 0 1 2 2 2 2 0 0 1-2 2h-.09a1.65 1.65 0 0 0-1.51 1z" fill="none" stroke="#ffffff" stroke-width="1.5" stroke-linecap="round" stroke-linejoin="round"/>
  </g>

  <!-- Bell/Notifications -->
  <g id="icon-notifications" transform="translate(260, 20)">
    <rect width="24" height="24" fill="none"/>
    <path d="M18 8A6 6 0 0 0 6 8c0 7-3 9-3 9h18s-3-2-3-9" fill="none" stroke="#ffffff" stroke-width="1.5" stroke-linecap="round" stroke-linejoin="round"/>
    <path d="M13.73 21a2 2 0 0 1-3.46 0" fill="none" stroke="#ffffff" stroke-width="1.5" stroke-linecap="round" stroke-linejoin="round"/>
  </g>

  <!-- Chat/Message -->
  <g id="icon-chat" transform="translate(300, 20)">
    <rect width="24" height="24" fill="none"/>
    <path d="M21 15a2 2 0 0 1-2 2H7l-4 4V5a2 2 0 0 1 2-2h14a2 2 0 0 1 2 2z" fill="none" stroke="#ffffff" stroke-width="1.5" stroke-linecap="round" stroke-linejoin="round"/>
  </g>

  <!-- Calendar -->
  <g id="icon-calendar" transform="translate(340, 20)">
    <rect width="24" height="24" fill="none"/>
    <rect x="3" y="4" width="18" height="18" rx="2" ry="2" fill="none" stroke="#ffffff" stroke-width="1.5"/>
    <line x1="16" y1="2" x2="16" y2="6" stroke="#ffffff" stroke-width="1.5" stroke-linecap="round"/>
    <line x1="8" y1="2" x2="8" y2="6" stroke="#ffffff" stroke-width="1.5" stroke-linecap="round"/>
    <line x1="3" y1="10" x2="21" y2="10" stroke="#ffffff" stroke-width="1.5" stroke-linecap="round"/>
  </g>

  <!-- Search -->
  <g id="icon-search" transform="translate(380, 20)">
    <rect width="24" height="24" fill="none"/>
    <circle cx="11" cy="11" r="8" fill="none" stroke="#ffffff" stroke-width="1.5"/>
    <line x1="21" y1="21" x2="16.65" y2="16.65" stroke="#ffffff" stroke-width="1.5" stroke-linecap="round"/>
  </g>

  <!-- ================================
       ROW 2: ACTION ICONS
       ================================ -->

  <!-- Play -->
  <g id="icon-play" transform="translate(20, 70)">
    <rect width="24" height="24" fill="none"/>
    <polygon points="5,3 19,12 5,21" fill="none" stroke="#ffffff" stroke-width="1.5" stroke-linecap="round" stroke-linejoin="round"/>
  </g>

  <!-- Pause -->
  <g id="icon-pause" transform="translate(60, 70)">
    <rect width="24" height="24" fill="none"/>
    <rect x="6" y="4" width="4" height="16" fill="none" stroke="#ffffff" stroke-width="1.5" stroke-linecap="round" stroke-linejoin="round"/>
    <rect x="14" y="4" width="4" height="16" fill="none" stroke="#ffffff" stroke-width="1.5" stroke-linecap="round" stroke-linejoin="round"/>
  </g>

  <!-- Rewind -->
  <g id="icon-rewind" transform="translate(100, 70)">
    <rect width="24" height="24" fill="none"/>
    <polygon points="11,19 2,12 11,5" fill="none" stroke="#ffffff" stroke-width="1.5" stroke-linecap="round" stroke-linejoin="round"/>
    <polygon points="22,19 13,12 22,5" fill="none" stroke="#ffffff" stroke-width="1.5" stroke-linecap="round" stroke-linejoin="round"/>
  </g>

  <!-- Forward -->
  <g id="icon-forward" transform="translate(140, 70)">
    <rect width="24" height="24" fill="none"/>
    <polygon points="13,19 22,12 13,5" fill="none" stroke="#ffffff" stroke-width="1.5" stroke-linecap="round" stroke-linejoin="round"/>
    <polygon points="2,19 11,12 2,5" fill="none" stroke="#ffffff" stroke-width="1.5" stroke-linecap="round" stroke-linejoin="round"/>
  </g>

  <!-- Refresh -->
  <g id="icon-refresh" transform="translate(180, 70)">
    <rect width="24" height="24" fill="none"/>
    <polyline points="23,4 23,10 17,10" fill="none" stroke="#ffffff" stroke-width="1.5" stroke-linecap="round" stroke-linejoin="round"/>
    <polyline points="1,20 1,14 7,14" fill="none" stroke="#ffffff" stroke-width="1.5" stroke-linecap="round" stroke-linejoin="round"/>
    <path d="M3.51 9a9 9 0 0 1 14.85-3.36L23 10M1 14l4.64 4.36A9 9 0 0 0 20.49 15" fill="none" stroke="#ffffff" stroke-width="1.5" stroke-linecap="round" stroke-linejoin="round"/>
  </g>

  <!-- Edit -->
  <g id="icon-edit" transform="translate(220, 70)">
    <rect width="24" height="24" fill="none"/>
    <path d="M11 4H4a2 2 0 0 0-2 2v14a2 2 0 0 0 2 2h14a2 2 0 0 0 2-2v-7" fill="none" stroke="#ffffff" stroke-width="1.5" stroke-linecap="round" stroke-linejoin="round"/>
    <path d="M18.5 2.5a2.121 2.121 0 0 1 3 3L12 15l-4 1 1-4 9.5-9.5z" fill="none" stroke="#ffffff" stroke-width="1.5" stroke-linecap="round" stroke-linejoin="round"/>
  </g>

  <!-- Delete/Trash -->
  <g id="icon-delete" transform="translate(260, 70)">
    <rect width="24" height="24" fill="none"/>
    <polyline points="3,6 5,6 21,6" fill="none" stroke="#ffffff" stroke-width="1.5" stroke-linecap="round" stroke-linejoin="round"/>
    <path d="M19 6v14a2 2 0 0 1-2 2H7a2 2 0 0 1-2-2V6m3 0V4a2 2 0 0 1 2-2h4a2 2 0 0 1 2 2v2" fill="none" stroke="#ffffff" stroke-width="1.5" stroke-linecap="round" stroke-linejoin="round"/>
  </g>

  <!-- Plus/Add -->
  <g id="icon-add" transform="translate(300, 70)">
    <rect width="24" height="24" fill="none"/>
    <line x1="12" y1="5" x2="12" y2="19" stroke="#ffffff" stroke-width="1.5" stroke-linecap="round"/>
    <line x1="5" y1="12" x2="19" y2="12" stroke="#ffffff" stroke-width="1.5" stroke-linecap="round"/>
  </g>

  <!-- Close/X -->
  <g id="icon-close" transform="translate(340, 70)">
    <rect width="24" height="24" fill="none"/>
    <line x1="18" y1="6" x2="6" y2="18" stroke="#ffffff" stroke-width="1.5" stroke-linecap="round"/>
    <line x1="6" y1="6" x2="18" y2="18" stroke="#ffffff" stroke-width="1.5" stroke-linecap="round"/>
  </g>

  <!-- Check -->
  <g id="icon-check" transform="translate(380, 70)">
    <rect width="24" height="24" fill="none"/>
    <polyline points="20,6 9,17 4,12" fill="none" stroke="#ffffff" stroke-width="1.5" stroke-linecap="round" stroke-linejoin="round"/>
  </g>

  <!-- ================================
       ROW 3: GOLF SPECIFIC ICONS
       ================================ -->

  <!-- Golf Flag -->
  <g id="icon-golf-flag" transform="translate(20, 120)">
    <rect width="24" height="24" fill="none"/>
    <path d="M4 21V3h1v2l10-2v8L5 13v8H4z" fill="none" stroke="#ffffff" stroke-width="1.5" stroke-linecap="round" stroke-linejoin="round"/>
  </g>

  <!-- Golf Ball -->
  <g id="icon-golf-ball" transform="translate(60, 120)">
    <rect width="24" height="24" fill="none"/>
    <circle cx="12" cy="12" r="9" fill="none" stroke="#ffffff" stroke-width="1.5"/>
    <circle cx="9" cy="8.5" r="1" fill="#ffffff"/>
    <circle cx="15" cy="8.5" r="1" fill="#ffffff"/>
    <circle cx="12" cy="13" r="1" fill="#ffffff"/>
    <circle cx="9" cy="16" r="1" fill="#ffffff"/>
    <circle cx="15" cy="16" r="1" fill="#ffffff"/>
  </g>

  <!-- Target -->
  <g id="icon-target" transform="translate(100, 120)">
    <rect width="24" height="24" fill="none"/>
    <circle cx="12" cy="12" r="10" fill="none" stroke="#ffffff" stroke-width="1.5"/>
    <circle cx="12" cy="12" r="6" fill="none" stroke="#ffffff" stroke-width="1.5"/>
    <circle cx="12" cy="12" r="2" fill="none" stroke="#ffffff" stroke-width="1.5"/>
  </g>

  <!-- Swing/Lightning -->
  <g id="icon-swing" transform="translate(140, 120)">
    <rect width="24" height="24" fill="none"/>
    <polygon points="13,2 3,14 12,14 11,22 21,10 12,10" fill="none" stroke="#ffffff" stroke-width="1.5" stroke-linecap="round" stroke-linejoin="round"/>
  </g>

  <!-- Green/Putting -->
  <g id="icon-green" transform="translate(180, 120)">
    <rect width="24" height="24" fill="none"/>
    <ellipse cx="12" cy="16" rx="9" ry="5" fill="none" stroke="#ffffff" stroke-width="1.5"/>
    <circle cx="12" cy="14" r="1.5" fill="#ffffff"/>
    <line x1="12" y1="3" x2="12" y2="11" stroke="#ffffff" stroke-width="1.5" stroke-linecap="round"/>
    <path d="M12 3l3-1v3l-3 1" fill="none" stroke="#ffffff" stroke-width="1.5" stroke-linecap="round" stroke-linejoin="round"/>
  </g>

  <!-- Golf Club -->
  <g id="icon-club" transform="translate(220, 120)">
    <rect width="24" height="24" fill="none"/>
    <path d="M5 4l2 3 12 12" fill="none" stroke="#ffffff" stroke-width="1.5" stroke-linecap="round" stroke-linejoin="round"/>
    <path d="M19 19l2 2" stroke="#ffffff" stroke-width="1.5" stroke-linecap="round"/>
    <ellipse cx="5" cy="6" rx="3" ry="4" transform="rotate(-30 5 6)" fill="none" stroke="#ffffff" stroke-width="1.5"/>
  </g>

  <!-- Scorecard -->
  <g id="icon-scorecard" transform="translate(260, 120)">
    <rect width="24" height="24" fill="none"/>
    <rect x="3" y="3" width="18" height="18" rx="2" fill="none" stroke="#ffffff" stroke-width="1.5"/>
    <line x1="3" y1="9" x2="21" y2="9" stroke="#ffffff" stroke-width="1.5"/>
    <line x1="3" y1="15" x2="21" y2="15" stroke="#ffffff" stroke-width="1.5"/>
    <line x1="9" y1="3" x2="9" y2="21" stroke="#ffffff" stroke-width="1.5"/>
    <line x1="15" y1="3" x2="15" y2="21" stroke="#ffffff" stroke-width="1.5"/>
  </g>

  <!-- Distance -->
  <g id="icon-distance" transform="translate(300, 120)">
    <rect width="24" height="24" fill="none"/>
    <line x1="4" y1="12" x2="20" y2="12" stroke="#ffffff" stroke-width="1.5" stroke-linecap="round"/>
    <polyline points="8,8 4,12 8,16" fill="none" stroke="#ffffff" stroke-width="1.5" stroke-linecap="round" stroke-linejoin="round"/>
    <polyline points="16,8 20,12 16,16" fill="none" stroke="#ffffff" stroke-width="1.5" stroke-linecap="round" stroke-linejoin="round"/>
  </g>

  <!-- Handicap -->
  <g id="icon-handicap" transform="translate(340, 120)">
    <rect width="24" height="24" fill="none"/>
    <circle cx="12" cy="12" r="9" fill="none" stroke="#ffffff" stroke-width="1.5"/>
    <path d="M12 6v6l4 2" fill="none" stroke="#ffffff" stroke-width="1.5" stroke-linecap="round" stroke-linejoin="round"/>
  </g>

  <!-- ================================
       ROW 4: ANALYSIS TOOLS
       ================================ -->

  <!-- Angle Measure -->
  <g id="icon-angle" transform="translate(20, 170)">
    <rect width="24" height="24" fill="none"/>
    <path d="M3 21L12 12L21 21" fill="none" stroke="#ffffff" stroke-width="1.5" stroke-linecap="round" stroke-linejoin="round"/>
    <path d="M7.5 16.5a6 6 0 0 1 9 0" fill="none" stroke="#ffffff" stroke-width="1.5" stroke-dasharray="2 2"/>
    <circle cx="12" cy="12" r="2" fill="none" stroke="#ffffff" stroke-width="1.5"/>
  </g>

  <!-- Draw Line -->
  <g id="icon-line" transform="translate(60, 170)">
    <rect width="24" height="24" fill="none"/>
    <line x1="4" y1="20" x2="20" y2="4" stroke="#ffffff" stroke-width="1.5" stroke-linecap="round"/>
    <circle cx="4" cy="20" r="2" fill="none" stroke="#ffffff" stroke-width="1.5"/>
    <circle cx="20" cy="4" r="2" fill="none" stroke="#ffffff" stroke-width="1.5"/>
  </g>

  <!-- Draw Circle -->
  <g id="icon-circle-draw" transform="translate(100, 170)">
    <rect width="24" height="24" fill="none"/>
    <circle cx="12" cy="12" r="9" fill="none" stroke="#ffffff" stroke-width="1.5"/>
    <line x1="12" y1="12" x2="18" y2="12" stroke="#ffffff" stroke-width="1.5" stroke-dasharray="2 2"/>
  </g>

  <!-- Arrow Tool -->
  <g id="icon-arrow" transform="translate(140, 170)">
    <rect width="24" height="24" fill="none"/>
    <line x1="5" y1="19" x2="19" y2="5" stroke="#ffffff" stroke-width="1.5" stroke-linecap="round"/>
    <polyline points="12,5 19,5 19,12" fill="none" stroke="#ffffff" stroke-width="1.5" stroke-linecap="round" stroke-linejoin="round"/>
  </g>

  <!-- Text/Annotation -->
  <g id="icon-text" transform="translate(180, 170)">
    <rect width="24" height="24" fill="none"/>
    <polyline points="4,7 4,4 20,4 20,7" fill="none" stroke="#ffffff" stroke-width="1.5" stroke-linecap="round" stroke-linejoin="round"/>
    <line x1="12" y1="4" x2="12" y2="20" stroke="#ffffff" stroke-width="1.5" stroke-linecap="round"/>
    <line x1="8" y1="20" x2="16" y2="20" stroke="#ffffff" stroke-width="1.5" stroke-linecap="round"/>
  </g>

  <!-- Undo -->
  <g id="icon-undo" transform="translate(220, 170)">
    <rect width="24" height="24" fill="none"/>
    <polyline points="1,4 1,10 7,10" fill="none" stroke="#ffffff" stroke-width="1.5" stroke-linecap="round" stroke-linejoin="round"/>
    <path d="M3.51 15a9 9 0 1 0 2.13-9.36L1 10" fill="none" stroke="#ffffff" stroke-width="1.5" stroke-linecap="round" stroke-linejoin="round"/>
  </g>

  <!-- Redo -->
  <g id="icon-redo" transform="translate(260, 170)">
    <rect width="24" height="24" fill="none"/>
    <polyline points="23,4 23,10 17,10" fill="none" stroke="#ffffff" stroke-width="1.5" stroke-linecap="round" stroke-linejoin="round"/>
    <path d="M20.49 15a9 9 0 1 1-2.12-9.36L23 10" fill="none" stroke="#ffffff" stroke-width="1.5" stroke-linecap="round" stroke-linejoin="round"/>
  </g>

  <!-- Zoom In -->
  <g id="icon-zoom-in" transform="translate(300, 170)">
    <rect width="24" height="24" fill="none"/>
    <circle cx="11" cy="11" r="8" fill="none" stroke="#ffffff" stroke-width="1.5"/>
    <line x1="21" y1="21" x2="16.65" y2="16.65" stroke="#ffffff" stroke-width="1.5" stroke-linecap="round"/>
    <line x1="11" y1="8" x2="11" y2="14" stroke="#ffffff" stroke-width="1.5" stroke-linecap="round"/>
    <line x1="8" y1="11" x2="14" y2="11" stroke="#ffffff" stroke-width="1.5" stroke-linecap="round"/>
  </g>

  <!-- Zoom Out -->
  <g id="icon-zoom-out" transform="translate(340, 170)">
    <rect width="24" height="24" fill="none"/>
    <circle cx="11" cy="11" r="8" fill="none" stroke="#ffffff" stroke-width="1.5"/>
    <line x1="21" y1="21" x2="16.65" y2="16.65" stroke="#ffffff" stroke-width="1.5" stroke-linecap="round"/>
    <line x1="8" y1="11" x2="14" y2="11" stroke="#ffffff" stroke-width="1.5" stroke-linecap="round"/>
  </g>

  <!-- Fullscreen -->
  <g id="icon-fullscreen" transform="translate(380, 170)">
    <rect width="24" height="24" fill="none"/>
    <polyline points="8,3 3,3 3,8" fill="none" stroke="#ffffff" stroke-width="1.5" stroke-linecap="round" stroke-linejoin="round"/>
    <polyline points="21,8 21,3 16,3" fill="none" stroke="#ffffff" stroke-width="1.5" stroke-linecap="round" stroke-linejoin="round"/>
    <polyline points="3,16 3,21 8,21" fill="none" stroke="#ffffff" stroke-width="1.5" stroke-linecap="round" stroke-linejoin="round"/>
    <polyline points="16,21 21,21 21,16" fill="none" stroke="#ffffff" stroke-width="1.5" stroke-linecap="round" stroke-linejoin="round"/>
  </g>

  <!-- ================================
       ROW 5: STATUS & METRICS
       ================================ -->

  <!-- Trend Up -->
  <g id="icon-trend-up" transform="translate(20, 220)">
    <rect width="24" height="24" fill="none"/>
    <polyline points="23,6 13.5,15.5 8.5,10.5 1,18" fill="none" stroke="#4ade80" stroke-width="1.5" stroke-linecap="round" stroke-linejoin="round"/>
    <polyline points="17,6 23,6 23,12" fill="none" stroke="#4ade80" stroke-width="1.5" stroke-linecap="round" stroke-linejoin="round"/>
  </g>

  <!-- Trend Down -->
  <g id="icon-trend-down" transform="translate(60, 220)">
    <rect width="24" height="24" fill="none"/>
    <polyline points="23,18 13.5,8.5 8.5,13.5 1,6" fill="none" stroke="#ef4444" stroke-width="1.5" stroke-linecap="round" stroke-linejoin="round"/>
    <polyline points="17,18 23,18 23,12" fill="none" stroke="#ef4444" stroke-width="1.5" stroke-linecap="round" stroke-linejoin="round"/>
  </g>

  <!-- Star Filled -->
  <g id="icon-star-filled" transform="translate(100, 220)">
    <rect width="24" height="24" fill="none"/>
    <polygon points="12,2 15.09,8.26 22,9.27 17,14.14 18.18,21.02 12,17.77 5.82,21.02 7,14.14 2,9.27 8.91,8.26" fill="#d4af37" stroke="#d4af37" stroke-width="1.5" stroke-linecap="round" stroke-linejoin="round"/>
  </g>

  <!-- Star Empty -->
  <g id="icon-star-empty" transform="translate(140, 220)">
    <rect width="24" height="24" fill="none"/>
    <polygon points="12,2 15.09,8.26 22,9.27 17,14.14 18.18,21.02 12,17.77 5.82,21.02 7,14.14 2,9.27 8.91,8.26" fill="none" stroke="#ffffff" stroke-width="1.5" stroke-linecap="round" stroke-linejoin="round"/>
  </g>

  <!-- Success/Check Circle -->
  <g id="icon-success" transform="translate(180, 220)">
    <rect width="24" height="24" fill="none"/>
    <circle cx="12" cy="12" r="10" fill="none" stroke="#4ade80" stroke-width="1.5"/>
    <polyline points="16,9 10.5,15 8,12.5" fill="none" stroke="#4ade80" stroke-width="1.5" stroke-linecap="round" stroke-linejoin="round"/>
  </g>

  <!-- Error/X Circle -->
  <g id="icon-error" transform="translate(220, 220)">
    <rect width="24" height="24" fill="none"/>
    <circle cx="12" cy="12" r="10" fill="none" stroke="#ef4444" stroke-width="1.5"/>
    <line x1="15" y1="9" x2="9" y2="15" stroke="#ef4444" stroke-width="1.5" stroke-linecap="round"/>
    <line x1="9" y1="9" x2="15" y2="15" stroke="#ef4444" stroke-width="1.5" stroke-linecap="round"/>
  </g>

  <!-- Warning -->
  <g id="icon-warning" transform="translate(260, 220)">
    <rect width="24" height="24" fill="none"/>
    <path d="M10.29 3.86L1.82 18a2 2 0 0 0 1.71 3h16.94a2 2 0 0 0 1.71-3L13.71 3.86a2 2 0 0 0-3.42 0z" fill="none" stroke="#fbbf24" stroke-width="1.5" stroke-linecap="round" stroke-linejoin="round"/>
    <line x1="12" y1="9" x2="12" y2="13" stroke="#fbbf24" stroke-width="1.5" stroke-linecap="round"/>
    <circle cx="12" cy="17" r="0.5" fill="#fbbf24" stroke="#fbbf24"/>
  </g>

  <!-- Info -->
  <g id="icon-info" transform="translate(300, 220)">
    <rect width="24" height="24" fill="none"/>
    <circle cx="12" cy="12" r="10" fill="none" stroke="#3b82f6" stroke-width="1.5"/>
    <line x1="12" y1="16" x2="12" y2="12" stroke="#3b82f6" stroke-width="1.5" stroke-linecap="round"/>
    <circle cx="12" cy="8" r="0.5" fill="#3b82f6" stroke="#3b82f6"/>
  </g>

  <!-- Online Status -->
  <g id="icon-online" transform="translate(340, 220)">
    <rect width="24" height="24" fill="none"/>
    <circle cx="12" cy="12" r="6" fill="#4ade80"/>
  </g>

  <!-- Offline Status -->
  <g id="icon-offline" transform="translate(380, 220)">
    <rect width="24" height="24" fill="none"/>
    <circle cx="12" cy="12" r="6" fill="none" stroke="#737373" stroke-width="1.5"/>
  </g>

  <!-- ================================
       ROW 6: MISC/UTILITY
       ================================ -->

  <!-- Menu/Hamburger -->
  <g id="icon-menu" transform="translate(20, 270)">
    <rect width="24" height="24" fill="none"/>
    <line x1="3" y1="12" x2="21" y2="12" stroke="#ffffff" stroke-width="1.5" stroke-linecap="round"/>
    <line x1="3" y1="6" x2="21" y2="6" stroke="#ffffff" stroke-width="1.5" stroke-linecap="round"/>
    <line x1="3" y1="18" x2="21" y2="18" stroke="#ffffff" stroke-width="1.5" stroke-linecap="round"/>
  </g>

  <!-- More/Dots -->
  <g id="icon-more" transform="translate(60, 270)">
    <rect width="24" height="24" fill="none"/>
    <circle cx="12" cy="12" r="1.5" fill="#ffffff"/>
    <circle cx="19" cy="12" r="1.5" fill="#ffffff"/>
    <circle cx="5" cy="12" r="1.5" fill="#ffffff"/>
  </g>

  <!-- Chevron Right -->
  <g id="icon-chevron-right" transform="translate(100, 270)">
    <rect width="24" height="24" fill="none"/>
    <polyline points="9,18 15,12 9,6" fill="none" stroke="#ffffff" stroke-width="1.5" stroke-linecap="round" stroke-linejoin="round"/>
  </g>

  <!-- Chevron Down -->
  <g id="icon-chevron-down" transform="translate(140, 270)">
    <rect width="24" height="24" fill="none"/>
    <polyline points="6,9 12,15 18,9" fill="none" stroke="#ffffff" stroke-width="1.5" stroke-linecap="round" stroke-linejoin="round"/>
  </g>

  <!-- Arrow Left/Back -->
  <g id="icon-back" transform="translate(180, 270)">
    <rect width="24" height="24" fill="none"/>
    <line x1="19" y1="12" x2="5" y2="12" stroke="#ffffff" stroke-width="1.5" stroke-linecap="round"/>
    <polyline points="12,19 5,12 12,5" fill="none" stroke="#ffffff" stroke-width="1.5" stroke-linecap="round" stroke-linejoin="round"/>
  </g>

  <!-- Share -->
  <g id="icon-share" transform="translate(220, 270)">
    <rect width="24" height="24" fill="none"/>
    <circle cx="18" cy="5" r="3" fill="none" stroke="#ffffff" stroke-width="1.5"/>
    <circle cx="6" cy="12" r="3" fill="none" stroke="#ffffff" stroke-width="1.5"/>
    <circle cx="18" cy="19" r="3" fill="none" stroke="#ffffff" stroke-width="1.5"/>
    <line x1="8.59" y1="13.51" x2="15.42" y2="17.49" stroke="#ffffff" stroke-width="1.5"/>
    <line x1="15.41" y1="6.51" x2="8.59" y2="10.49" stroke="#ffffff" stroke-width="1.5"/>
  </g>

  <!-- Download -->
  <g id="icon-download" transform="translate(260, 270)">
    <rect width="24" height="24" fill="none"/>
    <path d="M21 15v4a2 2 0 0 1-2 2H5a2 2 0 0 1-2-2v-4" fill="none" stroke="#ffffff" stroke-width="1.5" stroke-linecap="round" stroke-linejoin="round"/>
    <polyline points="7,10 12,15 17,10" fill="none" stroke="#ffffff" stroke-width="1.5" stroke-linecap="round" stroke-linejoin="round"/>
    <line x1="12" y1="15" x2="12" y2="3" stroke="#ffffff" stroke-width="1.5" stroke-linecap="round"/>
  </g>

  <!-- Upload -->
  <g id="icon-upload" transform="translate(300, 270)">
    <rect width="24" height="24" fill="none"/>
    <path d="M21 15v4a2 2 0 0 1-2 2H5a2 2 0 0 1-2-2v-4" fill="none" stroke="#ffffff" stroke-width="1.5" stroke-linecap="round" stroke-linejoin="round"/>
    <polyline points="17,8 12,3 7,8" fill="none" stroke="#ffffff" stroke-width="1.5" stroke-linecap="round" stroke-linejoin="round"/>
    <line x1="12" y1="3" x2="12" y2="15" stroke="#ffffff" stroke-width="1.5" stroke-linecap="round"/>
  </g>

  <!-- Filter -->
  <g id="icon-filter" transform="translate(340, 270)">
    <rect width="24" height="24" fill="none"/>
    <polygon points="22,3 2,3 10,12.46 10,19 14,21 14,12.46" fill="none" stroke="#ffffff" stroke-width="1.5" stroke-linecap="round" stroke-linejoin="round"/>
  </g>

  <!-- Lock -->
  <g id="icon-lock" transform="translate(380, 270)">
    <rect width="24" height="24" fill="none"/>
    <rect x="3" y="11" width="18" height="11" rx="2" ry="2" fill="none" stroke="#ffffff" stroke-width="1.5"/>
    <path d="M7 11V7a5 5 0 0 1 10 0v4" fill="none" stroke="#ffffff" stroke-width="1.5" stroke-linecap="round" stroke-linejoin="round"/>
  </g>

</svg>
